<svg id="Regular_1.5px_cart" data-name="Regular 1.5px/cart" xmlns="http://www.w3.org/2000/svg" width="24" height="24" viewBox="0 0 24 24">
  <rect id="Regular_1.5px_cart_background" data-name="Regular 1.5px/cart background" width="24" height="24" fill="#fff"/>
  <g id="Group" transform="translate(2.25 3.25)">
    <path id="Combined_Shape" data-name="Combined Shape" d="M15.146,13.5H7.312a2.746,2.746,0,0,1-2.668-2.083L2.4,2.447A1.249,1.249,0,0,0,1.188,1.5H.75A.75.75,0,0,1,.75,0h.438A2.746,2.746,0,0,1,3.856,2.083L4.086,3H16.257a2.75,2.75,0,0,1,2.685,3.347l-1.111,5A2.732,2.732,0,0,1,15.146,13.5ZM4.46,4.5,6.1,11.053A1.247,1.247,0,0,0,7.312,12h7.834a1.257,1.257,0,0,0,1.219-.978l1.111-5A1.25,1.25,0,0,0,16.257,4.5Z" transform="translate(0)"/>
    <path id="Oval_Stroke_" data-name="Oval (Stroke)" d="M1.5,3A1.5,1.5,0,1,1,3,1.5,1.5,1.5,0,0,1,1.5,3Z" transform="translate(5.75 14.75)"/>
    <path id="Oval_Copy_Stroke_" data-name="Oval Copy (Stroke)" d="M1.5,3A1.5,1.5,0,1,1,3,1.5,1.5,1.5,0,0,1,1.5,3Z" transform="translate(13.75 14.75)"/>
  </g>
</svg>
