<svg id="Regular_1.5px_heart" data-name="Regular 1.5px/heart" xmlns="http://www.w3.org/2000/svg" width="24" height="24" viewBox="0 0 24 24">
  <rect id="Regular_1.5px_heart_background" data-name="Regular 1.5px/heart background" width="24" height="24" fill="none"/>
  <path id="Combined_Shape" data-name="Combined Shape" d="M9.746,16.644a2.73,2.73,0,0,1-1.963-.824L1.6,9.517a5.653,5.653,0,0,1,0-7.878,5.424,5.424,0,0,1,7.77,0l.378.385.379-.385a5.424,5.424,0,0,1,7.77,0,5.653,5.653,0,0,1,0,7.878l-6.186,6.3A2.728,2.728,0,0,1,9.746,16.644ZM5.483,1.5A3.918,3.918,0,0,0,2.669,2.689a4.145,4.145,0,0,0,0,5.777l6.185,6.3a1.25,1.25,0,0,0,1.785,0l6.185-6.3a4.147,4.147,0,0,0,0-5.777,3.924,3.924,0,0,0-5.629,0l-.913.931a.751.751,0,0,1-1.07,0L8.3,2.689A3.918,3.918,0,0,0,5.483,1.5Z" transform="translate(2.254 3.75)" fill="#8b8b97"/>
</svg>
