<svg id="Regular_1.5px_person" data-name="Regular 1.5px/person" xmlns="http://www.w3.org/2000/svg" width="24" height="24" viewBox="0 0 24 24">
  <rect id="Regular_1.5px_person_background" data-name="Regular 1.5px/person background" width="24" height="24" fill="#fff"/>
  <g id="Group" transform="translate(3.25 2)">
    <path id="Vector_631_Stroke_" data-name="Vector 631 (Stroke)" d="M1.5,5.75v1a.75.75,0,0,1-1.5,0v-1A5.75,5.75,0,0,1,5.75,0h6A5.75,5.75,0,0,1,17.5,5.75v1a.75.75,0,0,1-1.5,0v-1A4.25,4.25,0,0,0,11.75,1.5h-6A4.25,4.25,0,0,0,1.5,5.75Z" transform="translate(0 12.25)"/>
    <path id="Combined_Shape" data-name="Combined Shape" d="M5,10a5,5,0,1,1,5-5A5.006,5.006,0,0,1,5,10ZM5,1.5A3.5,3.5,0,1,0,8.5,5,3.5,3.5,0,0,0,5,1.5Z" transform="translate(3.75)"/>
  </g>
</svg>
