<svg id="Regular_1.5px_notification" data-name="Regular 1.5px/notification" xmlns="http://www.w3.org/2000/svg" width="24" height="24" viewBox="0 0 24 24">
  <rect id="Regular_1.5px_notification_background" data-name="Regular 1.5px/notification background" width="24" height="24" fill="#fff"/>
  <path id="Shape" d="M10,20a4,4,0,0,1-4-3.8L6,16H1.4A1.4,1.4,0,0,1,.331,13.69l.1-.1,1.03-.995a2,2,0,0,0,.6-1.264l.008-.181-.01-3.153A7.971,7.971,0,0,1,18,7.722l0,.248v3.2a2,2,0,0,0,.467,1.284l.119.13,1,1a1.424,1.424,0,0,1,.414,1,1.409,1.409,0,0,1-1.278,1.409L18.586,16H14A4.005,4.005,0,0,1,10,20ZM7.5,16a2.5,2.5,0,1,0,5,0ZM10.03,1.5A6.471,6.471,0,0,0,3.562,7.757l0,.233.01,3.153a3.5,3.5,0,0,1-.916,2.372l-.153.157-.858.829H18.379l-.854-.853a3.493,3.493,0,0,1-1.018-2.262l-.007-.213V7.97A6.477,6.477,0,0,0,10.03,1.5Z" transform="translate(2 2)"/>
</svg>
