<svg xmlns="http://www.w3.org/2000/svg" width="19.425" height="14" viewBox="0 0 19.425 14">
  <g id="Group" transform="translate(-0.002 0)">
    <path id="Combined_Shape" data-name="Combined Shape" d="M9.715,14a9.837,9.837,0,0,1-6.209-2.19A13.684,13.684,0,0,1,.317,8.133a2.2,2.2,0,0,1,0-2.267A13.689,13.689,0,0,1,3.506,2.19a9.9,9.9,0,0,1,12.418,0,13.7,13.7,0,0,1,3.189,3.676,2.2,2.2,0,0,1,0,2.267,13.7,13.7,0,0,1-3.189,3.677A9.838,9.838,0,0,1,9.715,14Zm0-12.5A8.389,8.389,0,0,0,4.433,3.369,12.144,12.144,0,0,0,1.6,6.638a.683.683,0,0,0,0,.724,12.144,12.144,0,0,0,2.83,3.269,8.4,8.4,0,0,0,10.563,0,12.13,12.13,0,0,0,2.83-3.269.683.683,0,0,0,0-.724A12.129,12.129,0,0,0,15,3.369,8.39,8.39,0,0,0,9.715,1.5Z" transform="translate(0)" fill="#8b8b97"/>
    <path id="Combined_Shape-2" data-name="Combined Shape" d="M3,6A3,3,0,1,1,6,3,3,3,0,0,1,3,6ZM3,1.5A1.5,1.5,0,1,0,4.5,3,1.5,1.5,0,0,0,3,1.5Z" transform="translate(6.715 4)" fill="#8b8b97"/>
  </g>
</svg>
