<svg id="Regular_1.5px_phone" data-name="Regular 1.5px/phone" xmlns="http://www.w3.org/2000/svg" width="24" height="24" viewBox="0 0 24 24">
  <rect id="Regular_1.5px_phone_background" data-name="Regular 1.5px/phone background" width="24" height="24" fill="none"/>
  <path id="Combined_Shape" data-name="Combined Shape" d="M13.518,18.871h0a4.777,4.777,0,0,1-2.327-.609,26.882,26.882,0,0,1-6-4.585,26.882,26.882,0,0,1-4.585-6A4.791,4.791,0,0,1,.3,3.65,6.67,6.67,0,0,1,3,.374,2.327,2.327,0,0,1,6.139.951L7.646,3.007a2.989,2.989,0,0,1,.265,3.116l-.41.82a.82.82,0,0,0-.015.747,8.553,8.553,0,0,0,1.6,2.1,8.553,8.553,0,0,0,2.1,1.6.748.748,0,0,0,.346.083.907.907,0,0,0,.4-.1l.82-.41a3.013,3.013,0,0,1,1.341-.317,2.983,2.983,0,0,1,1.775.581l2.056,1.507a2.33,2.33,0,0,1,.578,3.141,7.02,7.02,0,0,1-2.2,2.179A5.354,5.354,0,0,1,13.518,18.871ZM4.261,1.5a.826.826,0,0,0-.449.132,5.1,5.1,0,0,0-2.1,2.523,3.413,3.413,0,0,0,.208,2.8,25.452,25.452,0,0,0,4.332,5.659,25.431,25.431,0,0,0,5.659,4.332,3.3,3.3,0,0,0,1.608.415,4.6,4.6,0,0,0,3.717-2.3.829.829,0,0,0-.206-1.117l-2.056-1.508a1.489,1.489,0,0,0-.887-.291,1.51,1.51,0,0,0-.671.158l-.819.41a2.42,2.42,0,0,1-1.077.257,2.225,2.225,0,0,1-1.028-.249,10.1,10.1,0,0,1-2.472-1.871A10.1,10.1,0,0,1,6.152,8.376,2.323,2.323,0,0,1,6.16,6.271l.41-.819a1.494,1.494,0,0,0-.132-1.558L4.929,1.839A.831.831,0,0,0,4.261,1.5Z" transform="translate(2.291 2.809)" fill="#f89b26"/>
</svg>
