<svg id="Regular_1.5px_location" data-name="Regular 1.5px/location" xmlns="http://www.w3.org/2000/svg" width="24" height="24" viewBox="0 0 24 24">
  <rect id="Regular_1.5px_location_background" data-name="Regular 1.5px/location background" width="24" height="24" fill="none"/>
  <g id="Group" transform="translate(3.965 2)">
    <path id="Combined_Shape" data-name="Combined Shape" d="M3,6A3,3,0,1,1,6,3,3,3,0,0,1,3,6ZM3,1.5A1.5,1.5,0,1,0,4.5,3,1.5,1.5,0,0,0,3,1.5Z" transform="translate(5.035 5)" fill="#8b8b97"/>
    <path id="Shape" d="M8.035,20.072a1.7,1.7,0,0,1-1.321-.634c-1.432-1.752-3.1-3.9-4.945-6.374l-.006-.008A7.946,7.946,0,0,1,0,8.035a8.037,8.037,0,1,1,14.312,5.016l0,.005c-.041.061-.364.493-.9,1.2-.894,1.179-2.609,3.419-4.051,5.183A1.7,1.7,0,0,1,8.035,20.072Zm0-18.572A6.542,6.542,0,0,0,1.5,8.035a6.463,6.463,0,0,0,1.432,4.082c.013.016.026.032.039.05l.122.163.088.118.255.339c.3.4.708.937,1.188,1.564C5.9,16.021,7,17.413,7.876,18.49a.2.2,0,0,0,.32,0c1.108-1.355,2.384-3,3.259-4.145.466-.61.889-1.166,1.19-1.566l.255-.339.088-.118.059-.077a1.353,1.353,0,0,1,.091-.126,6.468,6.468,0,0,0,1.432-4.083A6.542,6.542,0,0,0,8.035,1.5Z" fill="#8b8b97"/>
  </g>
</svg>
